<?xml version="1.0" encoding="utf-8"?>
<!-- Generator: Adobe Illustrator 25.0.0, SVG Export Plug-In . SVG Version: 6.00 Build 0)  -->
<svg version="1.1" id="katman_1" xmlns="http://www.w3.org/2000/svg" xmlns:xlink="http://www.w3.org/1999/xlink" x="0px" y="0px"
	 viewBox="0 0 3748 2620.7" style="enable-background:new 0 0 3748 2620.7;" xml:space="preserve">
<style type="text/css">
	.st0{fill:#283343;}
	.st1{fill:url(#SVGID_1_);}
</style>
<path class="st0" d="M859,2043.9c-82.4,0-149.1-68.2-149.1-152.4c0-84.2,66.8-152.4,149.1-152.4c82.4,0,149.1,68.2,149.1,152.4
	C1008.1,1975.6,941.4,2043.9,859,2043.9L859,2043.9z M1008.6,2063.2c0,14,23.9,53.2,53.2,53.2h19c7.4,0,13.4-6,13.4-13.4v-417.1
	h-0.1c-0.4-7.1-6.2-12.6-13.3-12.7H1022c-7.1,0-12.9,5.6-13.3,12.7h-0.1v33.9c-36-44.4-92.8-62.8-149.8-62.8
	c-129.5,0-234.5,105-234.5,234.5s105,234.5,234.5,234.5C915.8,2126,977.9,2103.8,1008.6,2063.2L1008.6,2063.2L1008.6,2063.2z
	 M1234.7,2003.5c39.3,27.2,82.1,40.4,123.3,40.4c39.2,0,79.8-20.3,79.8-55.7c0-47.3-88.4-54.6-143.9-73.5
	c-55.6-18.9-103.4-57.9-103.4-121.1c0-96.7,86.2-136.6,166.6-136.6c50.9,0,103.5,16.8,137.6,40.9c11.7,8.9,4.6,19.1,4.6,19.1
	l-32.5,46.5c-3.7,5.2-11.2,9.4-19.2,4.1c-21.9-14.5-46.3-28.5-90.4-28.5c-54.6,0-78.6,22.7-78.6,50.7c0,33.7,38.4,44.3,83.4,55.7
	c78.4,21.1,163.9,46.5,163.9,142.6c0,85.2-79.7,137.8-167.8,137.8c-66.7,0-123.6-19-171.2-54c-9.9-9.9-3-19.2-3-19.2l32.4-46.2
	C1222.8,1997.9,1231.1,2001,1234.7,2003.5L1234.7,2003.5z M1966.9,2063.2c0,14,23.9,53.2,53.2,53.2h19c7.4,0,13.4-6,13.4-13.4
	v-417.1h-0.1c-0.4-7.1-6.2-12.6-13.3-12.7h-58.8c-7.1,0-12.9,5.6-13.3,12.7h-0.1v33.9c-36-44.4-92.9-62.8-149.8-62.8
	c-129.5,0-234.5,105-234.5,234.5s105,234.5,234.5,234.5C1874,2125.9,1936.1,2103.8,1966.9,2063.2L1966.9,2063.2L1966.9,2063.2z
	 M1817.3,2043.9c-82.4,0-149.1-68.2-149.1-152.4c0-84.2,66.8-152.4,149.1-152.4c82.4,0,149.1,68.2,149.1,152.4
	C1966.4,1975.6,1899.6,2043.9,1817.3,2043.9L1817.3,2043.9z M2579.4,2077.5l0-215.8c0-121.7-76.8-203.8-199.2-203.8
	c-58.4,0-106.2,33.8-123.1,62.8v-0.4l-0.1,0.3c0-29.4-23.9-46.5-53.2-46.5h-18.9c-7.4,0-13.4,6-13.4,13.4v417.1h0.1
	c0.4,7,6.2,12.7,13.3,12.7h58.8c0.9,0,1.8-0.1,2.6-0.3c0.4-0.1,0.8-0.2,1.1-0.4c0.4-0.1,0.9-0.2,1.3-0.4c0.5-0.2,1-0.5,1.5-0.8
	c0.2-0.1,0.5-0.2,0.7-0.4c0.6-0.4,1.1-0.8,1.6-1.3c0.1-0.1,0.2-0.1,0.3-0.2c2.5-2.3,3.9-5.5,4.1-8.9h0.1v-246.4
	c0-65.3,53-118.3,118.3-118.3c65.3,0,118.3,53,118.3,118.3l0,206l0-0.1c0,0.2,0,0.4,0,0.6v39.9h0.1c0.4,7,6.2,12.7,13.3,12.7h58.8
	c0.9,0,1.8-0.1,2.6-0.3c0.4-0.1,0.7-0.2,1-0.3c0.5-0.1,1-0.3,1.4-0.5c0.5-0.2,0.9-0.5,1.4-0.7c0.3-0.1,0.6-0.3,0.8-0.4
	c0.5-0.4,1-0.8,1.5-1.2c0.1-0.1,0.3-0.2,0.4-0.3c0.5-0.5,1-1.1,1.5-1.7c1.5-2.1,2.4-4.6,2.6-7.2l0,0h0.1L2579.4,2077.5
	L2579.4,2077.5z M3038.1,2063.2c0,14,23.9,53.2,53.2,53.2h19c7.4,0,13.4-6,13.4-13.4v-417.1h-0.1c-0.4-7.1-6.2-12.6-13.3-12.7h-58.8
	c-7.1,0-12.9,5.6-13.3,12.7h-0.1v33.9c-36.1-44.4-92.9-62.8-149.8-62.8c-129.5,0-234.5,105-234.5,234.5s105,234.5,234.5,234.5
	C2945.3,2125.9,3007.3,2103.8,3038.1,2063.2L3038.1,2063.2L3038.1,2063.2z M2888.5,2043.9c-82.4,0-149.1-68.2-149.1-152.4
	c0-84.2,66.8-152.4,149.1-152.4c82.3,0,149.1,68.2,149.1,152.4C3037.6,1975.6,2970.9,2043.9,2888.5,2043.9L2888.5,2043.9z"/>
<radialGradient id="SVGID_1_" cx="1273.8121" cy="1910.0444" r="0.6626" gradientTransform="matrix(944.8934 0 0 -873.3772 -1201738.875 1669151.875)" gradientUnits="userSpaceOnUse">
	<stop  offset="0" style="stop-color:#FFB900"/>
	<stop  offset="0.6" style="stop-color:#F95D8F"/>
	<stop  offset="0.9991" style="stop-color:#F95353"/>
</radialGradient>
<path class="st1" d="M2144.8,947.7c-113.5,0-205.5,92-205.5,205.5c0,113.5,92,205.5,205.5,205.5c113.5,0,205.5-92,205.5-205.5
	C2350.3,1039.7,2258.3,947.7,2144.8,947.7L2144.8,947.7z M1610.9,947.7c-113.5,0-205.5,92-205.5,205.5c0,113.5,92,205.5,205.5,205.5
	c113.5,0,205.5-92,205.5-205.5C1816.4,1039.7,1724.4,947.7,1610.9,947.7L1610.9,947.7z M2083.3,690.8c0,113.5-92,205.5-205.5,205.5
	c-113.5,0-205.5-92-205.5-205.5s92-205.5,205.5-205.5C1991.3,485.3,2083.3,577.3,2083.3,690.8L2083.3,690.8z"/>
</svg>
