<svg width="800" height="600" viewBox="0 0 800 600" fill="none" xmlns="http://www.w3.org/2000/svg">
  <!-- 3D Cube -->
  <g transform="translate(600, 150) rotate(45)">
    <rect x="-40" y="-40" width="80" height="80" fill="#3a47d5" opacity="0.7" transform="skewX(-30) skewY(0)" />
    <rect x="-40" y="-40" width="80" height="80" fill="#ff2100" opacity="0.5" transform="skewX(0) skewY(-30)" />
    <rect x="-40" y="-40" width="80" height="80" fill="#01BEFF" opacity="0.6" transform="translate(0, 0) rotate(180) skewX(-30) skewY(-30)" />
  </g>
  
  <!-- 3D Sphere -->
  <g transform="translate(650, 350)">
    <circle cx="0" cy="0" r="60" fill="url(#sphereGradient)" opacity="0.8" />
    <ellipse cx="0" cy="0" rx="60" ry="20" fill="#3a47d5" opacity="0.3" />
    <ellipse cx="0" cy="0" rx="20" ry="60" fill="#ff2100" opacity="0.3" transform="rotate(45)" />
  </g>
  
  <!-- 3D Pyramid -->
  <g transform="translate(500, 450)">
    <path d="M0,-60 L52,30 L-52,30 Z" fill="#3a47d5" opacity="0.7" />
    <path d="M0,-60 L52,30 L0,0 Z" fill="#ff2100" opacity="0.5" />
    <path d="M0,-60 L-52,30 L0,0 Z" fill="#01BEFF" opacity="0.6" />
  </g>
  
  <!-- 3D Ring -->
  <g transform="translate(700, 250)">
    <circle cx="0" cy="0" r="40" stroke="#3a47d5" stroke-width="8" fill="none" opacity="0.7" transform="rotate(30)" />
    <ellipse cx="0" cy="0" rx="40" ry="15" stroke="#ff2100" stroke-width="3" fill="none" opacity="0.5" />
  </g>
  
  <!-- Floating Dots -->
  <g transform="translate(550, 200)">
    <circle cx="0" cy="0" r="4" fill="#3a47d5" opacity="0.8" />
    <circle cx="20" cy="-15" r="3" fill="#ff2100" opacity="0.7" />
    <circle cx="-25" cy="10" r="5" fill="#01BEFF" opacity="0.6" />
    <circle cx="15" cy="25" r="2" fill="#3a47d5" opacity="0.5" />
    <circle cx="-15" cy="-20" r="3" fill="#ff2100" opacity="0.7" />
  </g>
  
  <!-- Gradients -->
  <defs>
    <linearGradient id="sphereGradient" x1="0%" y1="0%" x2="100%" y2="100%">
      <stop offset="0%" stop-color="#3a47d5" stop-opacity="0.8" />
      <stop offset="50%" stop-color="#ff2100" stop-opacity="0.6" />
      <stop offset="100%" stop-color="#01BEFF" stop-opacity="0.7" />
    </linearGradient>
  </defs>
</svg>